<svg width="199" height="67" viewBox="0 0 199 67" fill="none" xmlns="http://www.w3.org/2000/svg">
<path d="M54.0474 45.9298V54.5965H45.4787L54.0474 45.9298ZM12.2859 45.9123L20.8721 54.579H12.2859V45.9123ZM12.2859 12.4211H20.8546L12.2859 21.0877V12.4211ZM45.4787 12.4211H54.0474V21.0702L45.4787 12.4211ZM3.64737 33.5088L33.1579 3.68421L54.03 24.7719V42.2456L33.1579 63.3158L3.64737 33.5088ZM33.1579 0L23.4374 9.82456H9.70306V23.7018L0 33.5088L9.70306 43.3158V57.193H23.4549L33.1579 67L42.861 57.193H56.6128V9.82456H42.8785L33.1579 0Z" fill="#232323"/>
<path d="M73.663 17.4913L71.9353 12.7369L70.1727 17.4913H73.663ZM77.6594 20.6667V21.1229H73.6979V20.6667H73.9597C74.1866 20.6667 74.3611 20.6316 74.4658 20.5615C74.5705 20.4913 74.6228 20.386 74.6228 20.2632C74.6228 20.1404 74.5705 19.9299 74.4832 19.6667L73.9422 18.1579H69.9633L69.3001 19.9474C69.2652 20.0351 69.2652 20.1053 69.2652 20.1579C69.2652 20.3158 69.335 20.4386 69.4746 20.5264C69.6142 20.6141 69.7713 20.6492 69.9633 20.6492H70.2425V21.1053H66.9791V20.6492H67.1885C67.3979 20.6492 67.5899 20.5965 67.7818 20.5088C67.9738 20.4036 68.1134 20.2807 68.1658 20.1229L71.6037 11.1404L72.8951 10.6492L76.5425 20.1404C76.6123 20.2983 76.7345 20.4386 76.8915 20.5264C77.0486 20.6141 77.2231 20.6492 77.4151 20.6492H77.6594V20.6667Z" fill="#232323"/>
<path d="M78.1306 20.772L82.5982 14.9123H79.5791C79.3348 14.9123 79.1428 15.3334 79.0206 16.1579H78.6193V14.2632H84.3434V14.7193L79.9456 20.4913H82.9996C83.2265 20.4913 83.401 20.3684 83.5231 20.1228C83.6453 19.8772 83.75 19.579 83.8373 19.2456H84.2212L84.0641 21.1228H78.1481V20.772H78.1306Z" fill="#232323"/>
<path d="M89.6486 20.0878C89.9802 19.7194 90.1896 19.2282 90.2944 18.6141H86.6993C86.7168 19.1229 86.8389 19.579 87.1182 20.0001C87.3799 20.4211 87.7988 20.6317 88.3747 20.6317C88.8982 20.6317 89.3171 20.4562 89.6486 20.0878ZM91.0971 15.0352C91.7428 15.6492 92.0744 16.5439 92.0744 17.6843C92.0744 18.7896 91.7603 19.6667 91.1146 20.2983C90.4689 20.9299 89.5788 21.2457 88.4445 21.2457C87.3974 21.2457 86.5946 20.9825 86.0536 20.4387C85.5126 19.8948 85.2509 19.1931 85.2509 18.3334V17.965H90.3816C90.3991 17.8948 90.3991 17.7896 90.3991 17.6667C90.3991 16.7896 90.1896 16.0703 89.7708 15.5264C89.352 14.9825 88.811 14.7018 88.1304 14.7018C87.5021 14.7018 86.9786 14.8597 86.5772 15.1931C86.1758 15.5264 85.914 16.0176 85.7744 16.7018H85.3032C85.373 15.9299 85.6871 15.3159 86.1932 14.8246C86.7168 14.351 87.4323 14.1053 88.3572 14.1053C89.5265 14.1053 90.4514 14.4211 91.0971 15.0352Z" fill="#232323"/>
<path d="M98.5838 14.2808C98.7933 14.386 98.9154 14.5615 98.9154 14.8071C98.9154 15.0351 98.8631 15.193 98.7409 15.3158C98.6362 15.4211 98.4791 15.4913 98.2872 15.4913C98.165 15.4913 98.0777 15.4737 98.0079 15.4386C97.9381 15.4036 97.8683 15.3334 97.7985 15.2632C97.7287 15.193 97.6589 15.1229 97.5891 15.0878C97.5193 15.0527 97.432 15.0351 97.3273 15.0351C97.1005 15.0351 96.8736 15.1229 96.6467 15.3158C96.4198 15.5088 96.2279 15.772 96.0708 16.1229C95.9138 16.4737 95.8265 16.8772 95.809 17.3334V20.193C95.809 20.3509 95.8789 20.4737 96.0185 20.5615C96.1581 20.6492 96.35 20.6843 96.5944 20.6843H96.8736V21.1229H93.0692V20.6843H93.3833C93.6101 20.6843 93.8021 20.6492 93.9417 20.5615C94.0813 20.4913 94.1511 20.3685 94.1511 20.193V15.5439C94.1511 15.3158 94.0464 15.193 93.8196 15.193C93.7323 15.193 93.5927 15.2281 93.4182 15.2983L93.3135 14.9123L95.46 14.1755H95.809V15.6316C95.9487 15.1579 96.2104 14.7895 96.5944 14.5088C96.9783 14.2281 97.3622 14.0878 97.7985 14.0878C98.0952 14.1053 98.3744 14.1755 98.5838 14.2808Z" fill="#232323"/>
<path d="M105.722 17.6492C105.722 15.7369 105.058 14.772 103.715 14.772C103.435 14.772 103.156 14.8422 102.894 15C102.633 15.1579 102.406 15.386 102.214 15.6667C102.039 15.9474 101.952 16.2807 101.952 16.6316V18.579C101.952 18.9299 102.022 19.2632 102.161 19.5615C102.301 19.8597 102.51 20.1229 102.807 20.3158C103.086 20.5088 103.418 20.6141 103.784 20.6141C105.076 20.6141 105.722 19.6316 105.722 17.6492ZM102.458 20.965C102.039 20.772 101.725 20.4913 101.516 20.1579L101.079 21.1229H100.294V12.0176C100.294 11.7895 100.189 11.6667 99.9625 11.6667C99.8753 11.6667 99.7356 11.7018 99.5611 11.772L99.4564 11.386L101.551 10.6492H101.952V15.193C102.196 14.8246 102.528 14.5439 102.947 14.3685C103.366 14.193 103.802 14.1053 104.238 14.1053C105.198 14.1053 105.948 14.4036 106.524 15C107.1 15.5965 107.379 16.4562 107.379 17.5615C107.379 18.8772 107.083 19.8246 106.507 20.386C105.931 20.965 105.093 21.2457 104.011 21.2457C103.4 21.2632 102.877 21.1579 102.458 20.965Z" fill="#232323"/>
<path d="M112.161 20.2632C112.51 20.0527 112.772 19.8071 112.929 19.5264V17.4738C111.969 17.6843 111.254 17.9825 110.765 18.3685C110.276 18.7545 110.032 19.158 110.032 19.5966C110.032 19.9124 110.137 20.158 110.329 20.3334C110.538 20.5089 110.8 20.5966 111.149 20.5966C111.481 20.5966 111.812 20.4913 112.161 20.2632ZM108.915 20.8422C108.566 20.5615 108.374 20.1931 108.374 19.7194C108.374 18.9825 108.741 18.4036 109.491 17.9475C110.224 17.4913 111.376 17.158 112.912 16.9475V16.2457C112.912 15.7545 112.772 15.4036 112.475 15.158C112.179 14.9124 111.795 14.7896 111.306 14.7896C110.957 14.7896 110.625 14.8597 110.329 15.0001C110.032 15.1404 109.892 15.2983 109.892 15.4387C109.892 15.5089 109.91 15.579 109.927 15.6843C109.945 15.772 109.945 15.8422 109.945 15.8948C109.945 16.0352 109.892 16.1755 109.788 16.2808C109.683 16.4036 109.526 16.4562 109.317 16.4562C109.125 16.4562 108.967 16.386 108.845 16.2457C108.723 16.1053 108.653 15.9124 108.653 15.6843C108.653 15.1755 108.933 14.7896 109.509 14.5089C110.084 14.2457 110.782 14.1053 111.655 14.1053C112.615 14.1053 113.33 14.3159 113.836 14.7194C114.343 15.1404 114.587 15.7018 114.587 16.4211V20.1755C114.587 20.4913 114.709 20.6492 114.936 20.6492C115.076 20.6492 115.25 20.6141 115.477 20.5264V20.8246C115.302 20.965 115.093 21.0703 114.849 21.1404C114.604 21.2106 114.343 21.2457 114.063 21.2457C113.767 21.2457 113.505 21.1931 113.278 21.0703C113.051 20.965 112.946 20.772 112.946 20.4913V20.1404C112.58 20.5439 112.161 20.8422 111.707 21.0001C111.254 21.158 110.8 21.2457 110.346 21.2457C109.753 21.2632 109.282 21.1229 108.915 20.8422Z" fill="#232323"/>
<path d="M123.993 14.2632V14.7018H123.784C123.557 14.7018 123.365 14.7544 123.225 14.8597C123.086 14.9649 122.964 15.1579 122.859 15.4211L119.997 22.4913C119.596 23.4913 118.897 24 117.903 24C117.484 24 117.152 23.9123 116.908 23.7544C116.664 23.5965 116.524 23.4035 116.524 23.193C116.524 22.8597 116.681 22.6842 116.995 22.6842C117.082 22.6842 117.152 22.7018 117.222 22.7544C117.292 22.807 117.344 22.8597 117.414 22.9474C117.536 23.1228 117.676 23.2106 117.85 23.2106C118.217 23.2106 118.514 23.1228 118.723 22.9298C118.932 22.7369 119.107 22.4562 119.264 22.0877L119.648 21.0877L116.925 15.1053C116.803 14.8246 116.559 14.7018 116.21 14.7018H115.966V14.2632H119.334V14.7018H119.072C118.845 14.7018 118.671 14.7369 118.583 14.8246C118.496 14.8948 118.461 15 118.514 15.1228L120.311 19.4737L121.986 15.1755L122.021 15.0527C122.021 14.9474 121.969 14.8597 121.847 14.807C121.742 14.7544 121.602 14.7193 121.445 14.7193H121.184V14.2632H123.993Z" fill="#232323"/>
<path d="M125.686 20.3334C125.04 19.7194 124.726 18.8422 124.726 17.6843C124.726 16.579 125.04 15.7194 125.686 15.0703C126.332 14.4211 127.239 14.1053 128.391 14.1053C128.862 14.1053 129.316 14.1755 129.752 14.2983C130.189 14.4387 130.555 14.6492 130.834 14.9825L130.974 14.1053H131.393V16.6141H130.991C130.887 15.9825 130.66 15.5089 130.276 15.1931C129.909 14.8773 129.421 14.7194 128.862 14.7194C128.077 14.7194 127.466 15.0001 127.047 15.5439C126.628 16.0878 126.419 16.8071 126.419 17.6843C126.419 18.5615 126.611 19.2808 127.012 19.8246C127.414 20.3685 127.955 20.6492 128.635 20.6492C129.944 20.6492 130.712 19.9825 130.956 18.6492H131.428C131.358 19.4211 131.061 20.0527 130.555 20.5264C130.049 21.0001 129.333 21.2457 128.409 21.2457C127.239 21.2632 126.332 20.9475 125.686 20.3334Z" fill="#232323"/>
<path d="M136.244 20.2632C136.593 20.0527 136.855 19.8071 137.012 19.5264V17.4738C136.052 17.6843 135.337 17.9825 134.848 18.3685C134.359 18.7545 134.115 19.158 134.115 19.5966C134.115 19.9124 134.22 20.158 134.412 20.3334C134.621 20.5089 134.883 20.5966 135.232 20.5966C135.581 20.5966 135.913 20.4913 136.244 20.2632ZM133.016 20.8422C132.667 20.5615 132.475 20.1931 132.475 19.7194C132.475 18.9825 132.841 18.4036 133.592 17.9475C134.325 17.4913 135.476 17.158 137.012 16.9475V16.2457C137.012 15.7545 136.873 15.4036 136.576 15.158C136.279 14.9124 135.895 14.7896 135.407 14.7896C135.058 14.7896 134.726 14.8597 134.429 15.0001C134.133 15.1404 133.993 15.2983 133.993 15.4387C133.993 15.5089 134.01 15.579 134.028 15.6843C134.045 15.772 134.063 15.8422 134.063 15.8948C134.063 16.0352 134.01 16.1755 133.906 16.2808C133.801 16.4036 133.644 16.4562 133.435 16.4562C133.243 16.4562 133.103 16.386 132.963 16.2457C132.841 16.1053 132.771 15.9124 132.771 15.6843C132.771 15.1755 133.051 14.7896 133.627 14.5089C134.202 14.2457 134.901 14.1053 135.773 14.1053C136.733 14.1053 137.448 14.3159 137.955 14.7194C138.461 15.1404 138.705 15.7018 138.705 16.4211V20.1755C138.705 20.4913 138.827 20.6492 139.054 20.6492C139.194 20.6492 139.368 20.6141 139.595 20.5264V20.8246C139.42 20.965 139.211 21.0703 138.967 21.1404C138.722 21.2106 138.461 21.2457 138.181 21.2457C137.885 21.2457 137.623 21.1931 137.396 21.0703C137.169 20.965 137.064 20.772 137.064 20.4913V20.1404C136.698 20.5439 136.279 20.8422 135.825 21.0001C135.354 21.158 134.918 21.2457 134.464 21.2457C133.853 21.2632 133.365 21.1229 133.016 20.8422Z" fill="#232323"/>
<path d="M148.984 20.6843V21.1229H145.249V20.6843H145.494C145.72 20.6843 145.895 20.6492 146.035 20.5615C146.174 20.4913 146.244 20.3685 146.244 20.1931V16.2808C146.244 15.7896 146.122 15.4211 145.877 15.158C145.633 14.9124 145.284 14.7896 144.83 14.7896C144.516 14.7896 144.22 14.8773 143.923 15.0352C143.626 15.1931 143.382 15.4562 143.19 15.7896C142.998 16.1229 142.893 16.5439 142.893 17.0352V20.1931C142.893 20.351 142.963 20.4738 143.103 20.5615C143.242 20.6317 143.417 20.6843 143.644 20.6843H143.888V21.1229H140.153V20.6843H140.45C140.694 20.6843 140.886 20.6492 141.026 20.5615C141.166 20.4913 141.235 20.3685 141.235 20.1931V15.5439C141.235 15.3159 141.113 15.1931 140.886 15.1931C140.817 15.1931 140.677 15.2282 140.502 15.2983L140.398 14.9124L142.509 14.1755H142.911V15.3159C143.138 14.965 143.469 14.6843 143.905 14.4562C144.342 14.2282 144.83 14.1053 145.354 14.1053C146.174 14.1053 146.82 14.2808 147.239 14.6492C147.675 15.0176 147.884 15.4913 147.884 16.1053V20.1931C147.884 20.351 147.954 20.4738 148.094 20.5615C148.233 20.6317 148.425 20.6843 148.67 20.6843H148.984Z" fill="#232323"/>
<path d="M158.233 20.4562C159.21 20.4562 159.961 20.0702 160.467 19.2983C160.973 18.5264 161.217 17.4386 161.217 16C161.217 14.579 160.973 13.4913 160.467 12.7018C159.961 11.9299 159.228 11.5439 158.251 11.5439H156.54V20.4386H158.233V20.4562ZM153.539 20.6667H153.975C154.516 20.6667 154.795 20.4913 154.795 20.1404V11.8948C154.795 11.5264 154.516 11.3509 153.975 11.3509H153.539V10.8948H158.268C161.392 10.8948 162.963 12.5965 162.963 16C162.963 19.4035 161.392 21.1053 158.251 21.1053H153.539V20.6667Z" fill="#232323"/>
<path d="M168.948 12.9123C168.809 12.772 168.739 12.5966 168.739 12.3685C168.739 12.1404 168.809 11.9474 168.948 11.8071C169.088 11.6667 169.28 11.5966 169.507 11.5966C169.734 11.5966 169.926 11.6667 170.048 11.8071C170.188 11.9474 170.257 12.1404 170.257 12.3685C170.257 12.5966 170.188 12.772 170.048 12.9123C169.908 13.0527 169.734 13.1229 169.507 13.1229C169.28 13.1229 169.088 13.0527 168.948 12.9123ZM169.489 19.8597C169.873 19.3509 170.065 18.6316 170.065 17.6843C170.065 16.7545 169.873 16.0352 169.489 15.5264C169.106 15.0176 168.582 14.772 167.919 14.772C167.238 14.772 166.715 15.0176 166.331 15.5264C165.947 16.0352 165.755 16.7545 165.755 17.6843C165.755 18.6316 165.947 19.3509 166.331 19.8597C166.715 20.3685 167.238 20.6141 167.919 20.6141C168.582 20.6141 169.106 20.3685 169.489 19.8597ZM165.737 12.9123C165.598 12.772 165.528 12.5966 165.528 12.3685C165.528 12.1404 165.598 11.9474 165.737 11.8071C165.877 11.6667 166.052 11.5966 166.278 11.5966C166.505 11.5966 166.697 11.6667 166.837 11.8071C166.976 11.9474 167.046 12.1404 167.046 12.3685C167.046 12.5966 166.976 12.772 166.837 12.9123C166.697 13.0527 166.505 13.1229 166.278 13.1229C166.052 13.1229 165.877 13.0527 165.737 12.9123ZM165.092 20.3334C164.429 19.7194 164.097 18.8422 164.097 17.6843C164.097 16.5439 164.429 15.6492 165.092 15.0352C165.755 14.4211 166.697 14.1053 167.919 14.1053C169.14 14.1053 170.065 14.4211 170.729 15.0352C171.392 15.6492 171.723 16.5439 171.723 17.6843C171.723 18.8246 171.392 19.7194 170.729 20.3334C170.065 20.9474 169.123 21.2632 167.919 21.2632C166.697 21.2632 165.755 20.9474 165.092 20.3334Z" fill="#232323"/>
<path d="M173.486 15.3509C173.381 15.0877 173.276 14.9123 173.172 14.8246C173.05 14.7369 172.893 14.7018 172.701 14.7018H172.456V14.2632H175.824V14.7018H175.563C175.196 14.7018 175.022 14.807 175.022 15.0176C175.022 15.0877 175.039 15.1404 175.057 15.1755L176.68 19.7193L178.285 15.2456C178.303 15.193 178.32 15.1404 178.32 15.0702C178.32 14.9474 178.268 14.8597 178.145 14.7895C178.023 14.7369 177.901 14.7018 177.744 14.7018H177.5V14.2632H180.309V14.7018H180.1C179.908 14.7018 179.751 14.7369 179.594 14.807C179.437 14.8772 179.332 14.9825 179.262 15.1404L177.046 21.1228H175.702L173.486 15.3509Z" fill="#232323"/>
<path d="M181.042 20.6843H181.339C181.583 20.6843 181.775 20.6492 181.915 20.5615C182.055 20.4913 182.124 20.3685 182.124 20.193V12.0176C182.124 11.7895 182.002 11.6667 181.775 11.6667C181.706 11.6667 181.566 11.7018 181.391 11.772L181.269 11.386L183.381 10.6492H183.782V20.1755C183.782 20.3334 183.852 20.4562 183.992 20.5439C184.131 20.6316 184.323 20.6667 184.55 20.6667H184.829V21.1053H181.042V20.6843Z" fill="#232323"/>
<path d="M190.257 20.0878C190.588 19.7194 190.798 19.2282 190.903 18.6141H187.307C187.325 19.1229 187.447 19.579 187.726 20.0001C187.988 20.4211 188.407 20.6317 188.983 20.6317C189.506 20.6317 189.925 20.4562 190.257 20.0878ZM191.705 15.0352C192.351 15.6492 192.683 16.5439 192.683 17.6843C192.683 18.7896 192.351 19.6667 191.705 20.2983C191.06 20.9299 190.17 21.2457 189.035 21.2457C187.988 21.2457 187.185 20.9825 186.644 20.4387C186.103 19.8948 185.842 19.1931 185.842 18.3334V17.965H190.972C190.99 17.8948 190.99 17.7896 190.99 17.6667C190.99 16.7896 190.78 16.0703 190.362 15.5264C189.943 14.9825 189.402 14.7018 188.721 14.7018C188.093 14.7018 187.569 14.8597 187.168 15.1931C186.766 15.5264 186.505 16.0176 186.365 16.7018H185.894C185.964 15.9299 186.278 15.3159 186.784 14.8246C187.307 14.351 188.023 14.1053 188.948 14.1053C190.135 14.1053 191.06 14.4211 191.705 15.0352Z" fill="#232323"/>
<path d="M199 19.6843C198.948 20.2282 198.738 20.6317 198.372 20.8773C198.005 21.1229 197.534 21.2633 196.941 21.2633C196.173 21.2633 195.58 21.1054 195.161 20.8071C194.742 20.5089 194.532 19.9825 194.532 19.2633V14.8948H193.468V14.2633H194.532V12.9826L195.824 12.2983H196.208V14.2457H198.232V14.8948H196.208V19.2282C196.208 19.7194 196.295 20.0703 196.47 20.3159C196.644 20.544 196.906 20.6668 197.272 20.6668C197.569 20.6668 197.831 20.5966 198.058 20.4387C198.285 20.2808 198.407 20.0352 198.442 19.7018H199V19.6843Z" fill="#232323"/>
<path d="M73.663 34.9825L71.9353 30.2281L70.1727 34.9825H73.663ZM77.6594 38.1755V38.6316H73.6979V38.1755H73.9597C74.1866 38.1755 74.3611 38.1404 74.4658 38.0702C74.5705 38.0001 74.6228 37.8948 74.6228 37.772C74.6228 37.6492 74.5705 37.4387 74.4832 37.1755L73.9422 35.6667H69.9633L69.3001 37.4562C69.2652 37.5439 69.2652 37.6141 69.2652 37.6667C69.2652 37.8246 69.335 37.9474 69.4746 38.0352C69.6142 38.1229 69.7713 38.158 69.9633 38.158H70.2425V38.6141H66.9791V38.158H67.1885C67.3979 38.158 67.5899 38.1053 67.7818 38.0176C67.9738 37.9123 68.1134 37.7895 68.1658 37.6316L71.6037 28.6492L72.8951 28.158L76.5425 37.6492C76.6123 37.8071 76.7345 37.9474 76.8915 38.0352C77.0486 38.1229 77.2231 38.158 77.4151 38.158H77.6594V38.1755Z" fill="#232323"/>
<path d="M86.6644 38.193V38.6316H84.099L81.0276 35.7018L80.9054 35.807V37.7018C80.9054 37.8597 80.9752 37.9825 81.1148 38.0702C81.2544 38.1579 81.4464 38.193 81.6733 38.193H81.9525V38.6316H78.1655V38.193H78.4622C78.7065 38.193 78.8985 38.1579 79.0381 38.0702C79.1777 38 79.2475 37.8772 79.2475 37.7018V29.5088C79.2475 29.2807 79.1254 29.1579 78.8985 29.1579C78.8287 29.1579 78.6891 29.193 78.5146 29.2632L78.3924 28.8772L80.504 28.1404H80.9054V34.9299L83.6104 32.7193C83.6977 32.6492 83.75 32.579 83.75 32.4913C83.75 32.4035 83.6977 32.3334 83.593 32.2807C83.4882 32.2281 83.3661 32.193 83.2439 32.193H82.8774V31.7544H85.9664V32.193H85.5999C85.4777 32.193 85.3207 32.2456 85.1461 32.3158C84.9716 32.4035 84.7971 32.5088 84.64 32.6316L82.0572 34.7895L85.0763 37.6842C85.2334 37.8246 85.4254 37.9474 85.6522 38.0351C85.8791 38.1228 86.0711 38.1579 86.2456 38.1579H86.6644V38.193Z" fill="#232323"/>
<path d="M90.591 37.772C90.94 37.5615 91.1844 37.3159 91.3589 37.0352V34.9826C90.399 35.1931 89.6835 35.4913 89.1949 35.8773C88.7062 36.2633 88.4619 36.6668 88.4619 37.1054C88.4619 37.4212 88.5666 37.6668 88.7586 37.8422C88.968 38.0176 89.2298 38.1054 89.5788 38.1054C89.9104 38.1054 90.242 37.9826 90.591 37.772ZM87.345 38.351C86.996 38.0703 86.804 37.7019 86.804 37.2282C86.804 36.4913 87.1705 35.9124 87.9209 35.4562C88.6539 35.0001 89.8057 34.6668 91.3414 34.4562V33.7545C91.3414 33.2633 91.2018 32.9124 90.9051 32.6668C90.6085 32.4212 90.2245 32.2983 89.7359 32.2983C89.3868 32.2983 89.0553 32.3685 88.7586 32.5089C88.4619 32.6492 88.3223 32.8071 88.3223 32.9475C88.3223 33.0176 88.3398 33.0878 88.3572 33.1931C88.3747 33.2808 88.3921 33.351 88.3921 33.4036C88.3921 33.544 88.3398 33.6843 88.235 33.7896C88.1303 33.9124 87.9733 33.965 87.7639 33.965C87.5719 33.965 87.4148 33.8948 87.2927 33.7545C87.153 33.6141 87.1007 33.4212 87.1007 33.1931C87.1007 32.6843 87.3799 32.2983 87.9558 32.0176C88.5317 31.7545 89.2298 31.6141 90.1024 31.6141C91.0622 31.6141 91.7777 31.8247 92.2838 32.2282C92.7899 32.6492 93.0342 33.2106 93.0342 33.9299V37.6843C93.0342 38.0001 93.1564 38.158 93.3832 38.158C93.5229 38.158 93.6974 38.1229 93.9242 38.0352V38.3334C93.7497 38.4738 93.5403 38.5791 93.296 38.6492C93.0168 38.7369 92.755 38.772 92.4932 38.772C92.1965 38.772 91.9348 38.7194 91.7079 38.5966C91.481 38.4913 91.3763 38.2983 91.3763 38.0176V37.6668C91.0098 38.0703 90.591 38.3685 90.1373 38.5264C89.6661 38.6843 89.2298 38.772 88.776 38.772C88.1827 38.772 87.7115 38.6317 87.345 38.351Z" fill="#232323"/>
<path d="M99.596 37.5439C99.9276 37.158 100.085 36.6843 100.085 36.158V33.9825C100.085 33.6492 99.9974 33.3509 99.8229 33.1053C99.6484 32.8422 99.4215 32.6492 99.1597 32.4913C98.8979 32.3509 98.6187 32.2808 98.3395 32.2808C96.9957 32.2808 96.3151 33.2281 96.3151 35.1053C96.3151 37.1229 96.9608 38.1404 98.2522 38.1404C98.8107 38.1229 99.2644 37.9299 99.596 37.5439ZM95.4774 37.8773C94.9364 37.2808 94.6572 36.3334 94.6572 35.0527C94.6572 34.3159 94.7968 33.6843 95.0586 33.1755C95.3204 32.6667 95.6869 32.2808 96.1581 32.0176C96.6118 31.7545 97.1528 31.6316 97.7461 31.6316C98.7932 31.6316 99.5611 31.9474 100.05 32.5966V29.5264C100.05 29.2983 99.945 29.1755 99.7182 29.1755C99.6309 29.1755 99.4913 29.2106 99.3168 29.2808L99.2121 28.8948L101.306 28.158H101.708V37.5264C101.708 37.7194 101.76 37.8422 101.865 37.9299C101.969 38.0176 102.126 38.0527 102.336 38.0527H102.685V38.4562L100.364 38.6843L100.294 37.5439C100.032 37.965 99.7007 38.2632 99.2819 38.4562C98.863 38.6492 98.357 38.7545 97.7636 38.7545C96.7863 38.772 96.0359 38.4738 95.4774 37.8773Z" fill="#232323"/>
<path d="M105.913 32.7896C105.582 33.158 105.372 33.6492 105.268 34.2633H108.863C108.845 33.7545 108.723 33.2983 108.444 32.8773C108.182 32.4562 107.763 32.2457 107.187 32.2457C106.664 32.2457 106.245 32.4387 105.913 32.7896ZM105.198 34.8948C105.181 34.965 105.181 35.0703 105.181 35.1931C105.181 36.0703 105.39 36.7896 105.809 37.3334C106.228 37.8773 106.769 38.158 107.449 38.158C108.077 38.158 108.601 38.0001 109.002 37.6668C109.404 37.3334 109.666 36.8422 109.805 36.158H110.276C110.189 36.9299 109.892 37.544 109.386 38.0352C108.863 38.5089 108.147 38.7545 107.222 38.7545C106.036 38.7545 105.128 38.4387 104.465 37.8247C103.819 37.2106 103.488 36.3159 103.488 35.1755C103.488 34.0703 103.802 33.1931 104.448 32.5615C105.093 31.9299 105.983 31.6141 107.118 31.6141C108.165 31.6141 108.968 31.8773 109.509 32.4212C110.05 32.965 110.311 33.6668 110.311 34.5264V34.8948H105.198Z" fill="#232323"/>
<path d="M124.168 38.193V38.6316H120.381V38.193H120.677C120.922 38.193 121.114 38.1579 121.253 38.0702C121.393 38 121.463 37.8772 121.463 37.7018V33.7895C121.463 33.2983 121.358 32.9299 121.131 32.6667C120.904 32.4211 120.608 32.2983 120.224 32.2983C119.753 32.2983 119.351 32.4913 119.002 32.8772C118.653 33.2632 118.496 33.8246 118.496 34.5439V37.6842C118.496 37.8421 118.566 37.9649 118.705 38.0527C118.845 38.1404 119.037 38.1755 119.281 38.1755H119.404V38.6141H115.966V38.1755H116.123C116.367 38.1755 116.559 38.1404 116.699 38.0527C116.838 37.9825 116.908 37.8597 116.908 37.6842V33.772C116.908 33.2807 116.803 32.9123 116.576 32.6492C116.35 32.4035 116.053 32.2807 115.669 32.2807C115.198 32.2807 114.796 32.4737 114.447 32.8597C114.116 33.2456 113.941 33.807 113.941 34.5263V37.6667C113.941 37.8246 114.011 37.9474 114.151 38.0351C114.29 38.1228 114.482 38.1579 114.727 38.1579H115.006V38.5965H111.201V38.1579H111.515C111.742 38.1579 111.934 38.1228 112.074 38.0351C112.213 37.9649 112.283 37.8421 112.283 37.6667V33.0176C112.283 32.7895 112.179 32.6667 111.952 32.6667C111.864 32.6667 111.725 32.7018 111.55 32.772L111.446 32.386L113.54 31.6492H113.941V32.7544C114.151 32.4211 114.447 32.1404 114.831 31.9123C115.233 31.6842 115.669 31.579 116.175 31.579C116.803 31.579 117.292 31.7018 117.676 31.9299C118.042 32.1579 118.287 32.4913 118.409 32.9299C118.566 32.5439 118.863 32.2281 119.299 31.9825C119.735 31.7193 120.206 31.5965 120.747 31.5965C121.533 31.5965 122.126 31.772 122.527 32.1404C122.929 32.5088 123.138 32.9825 123.138 33.5965V37.6667C123.138 37.8246 123.208 37.9474 123.348 38.0351C123.487 38.1228 123.679 38.1579 123.906 38.1579H124.168V38.193Z" fill="#232323"/>
<path d="M126.053 30.1931C125.878 30.0176 125.791 29.8071 125.791 29.544C125.791 29.2808 125.878 29.0527 126.053 28.8773C126.227 28.7019 126.454 28.6141 126.733 28.6141C126.995 28.6141 127.222 28.7019 127.396 28.8773C127.571 29.0527 127.658 29.2633 127.658 29.544C127.658 29.8071 127.571 30.0176 127.396 30.1931C127.222 30.3685 126.995 30.4562 126.733 30.4562C126.454 30.4562 126.227 30.3685 126.053 30.1931ZM124.953 38.1931H125.25C125.494 38.1931 125.686 38.158 125.826 38.0703C125.965 38.0001 126.035 37.8773 126.035 37.7019V33.0352C126.035 32.7896 125.913 32.6668 125.686 32.6668C125.634 32.6668 125.581 32.6843 125.494 32.7194C125.407 32.7545 125.355 32.772 125.302 32.772L125.18 32.3861L127.292 31.6668H127.693V37.6843C127.693 37.8422 127.763 37.965 127.902 38.0527C128.042 38.1229 128.234 38.1755 128.461 38.1755H128.775V38.6141H124.953V38.1931Z" fill="#232323"/>
<path d="M138.059 38.193V38.6316H135.494L132.422 35.7018L132.3 35.807V37.7018C132.3 37.8597 132.37 37.9825 132.51 38.0702C132.649 38.1579 132.841 38.193 133.068 38.193H133.347V38.6316H129.56V38.193H129.857C130.101 38.193 130.293 38.1579 130.433 38.0702C130.572 38 130.642 37.8772 130.642 37.7018V29.5088C130.642 29.2807 130.52 29.1579 130.293 29.1579C130.223 29.1579 130.084 29.193 129.909 29.2632L129.787 28.8772L131.899 28.1404H132.3V34.9299L135.005 32.7193C135.092 32.6492 135.145 32.579 135.145 32.4913C135.145 32.4035 135.092 32.3334 134.988 32.2807C134.883 32.2281 134.761 32.193 134.639 32.193H134.272V31.7544H137.361V32.193H136.995C136.872 32.193 136.715 32.2456 136.541 32.3158C136.366 32.4035 136.192 32.5088 136.035 32.6316L133.452 34.7895L136.471 37.6842C136.628 37.8246 136.82 37.9474 137.047 38.0351C137.274 38.1228 137.466 38.1579 137.64 38.1579H138.059V38.193Z" fill="#232323"/>
<path d="M75.1289 45.9124V48.5264H74.6752C74.5705 47.2281 74.1342 46.579 73.3488 46.579H70.068V50.8773H72.3018C72.5984 50.8773 72.7729 50.772 72.8777 50.5264C72.9649 50.2983 73.0347 49.9474 73.0696 49.4913H73.4536V52.9299H73.0696C73.0347 52.4562 72.9649 52.1229 72.8777 51.8948C72.7904 51.6667 72.5984 51.5439 72.3018 51.5439H70.068V55.1404C70.068 55.3334 70.1378 55.4562 70.2774 55.5439C70.417 55.6317 70.6264 55.6667 70.9056 55.6667H71.3245V56.1404H67.0837V55.6843H67.52C68.061 55.6843 68.3403 55.5088 68.3403 55.158V46.9124C68.3403 46.5615 68.061 46.3685 67.52 46.3685H67.0837V45.9124H75.1289Z" fill="#232323"/>
<path d="M77.1359 47.7017C76.9614 47.5263 76.8741 47.3158 76.8741 47.0526C76.8741 46.7719 76.9614 46.5614 77.1359 46.386C77.3104 46.2105 77.5373 46.1228 77.8165 46.1228C78.0783 46.1228 78.3051 46.2105 78.4797 46.386C78.6542 46.5614 78.7414 46.7719 78.7414 47.0526C78.7414 47.3158 78.6542 47.5263 78.4797 47.7017C78.3051 47.8772 78.0783 47.9649 77.8165 47.9649C77.5373 47.9649 77.3104 47.8772 77.1359 47.7017ZM76.0364 55.7017H76.3331C76.5774 55.7017 76.7694 55.6667 76.909 55.5789C77.0486 55.5088 77.1184 55.386 77.1184 55.2105V50.5439C77.1184 50.2982 76.9963 50.1754 76.7694 50.1754C76.7171 50.1754 76.6647 50.193 76.5774 50.2281C76.4902 50.2632 76.4378 50.2807 76.3855 50.2807L76.2633 49.8947L78.3749 49.1754H78.7763V55.193C78.7763 55.3509 78.8461 55.4737 78.9857 55.5614C79.1254 55.6316 79.3173 55.6842 79.5442 55.6842H79.8583V56.1403H76.0364V55.7017Z" fill="#232323"/>
<path d="M80.7833 55.7018H81.0799C81.3243 55.7018 81.5162 55.6667 81.6558 55.579C81.7955 55.5088 81.8653 55.386 81.8653 55.2106V47.0176C81.8653 46.7895 81.7431 46.6667 81.5162 46.6667C81.4464 46.6667 81.3068 46.7018 81.1323 46.772L81.0101 46.386L83.1218 45.6492H83.5231V55.1755C83.5231 55.3334 83.593 55.4737 83.7326 55.5439C83.8722 55.6316 84.0641 55.6667 84.291 55.6667H84.5702V56.1404H80.7833V55.7018Z" fill="#232323"/>
<path d="M89.2647 55.2807C89.6137 55.0702 89.8581 54.8246 90.0326 54.5439V52.4912C89.0727 52.7017 88.3572 53 87.8686 53.386C87.3799 53.7719 87.1356 54.1754 87.1356 54.614C87.1356 54.9298 87.2403 55.1754 87.4323 55.3509C87.6417 55.5263 87.9035 55.614 88.2525 55.614C88.6015 55.614 88.9331 55.4912 89.2647 55.2807ZM86.0362 55.8596C85.6871 55.5789 85.4952 55.2105 85.4952 54.7193C85.4952 53.9825 85.8617 53.4035 86.6121 52.9474C87.345 52.4912 88.4968 52.1579 90.0326 51.9474V51.2456C90.0326 50.7544 89.893 50.386 89.5963 50.1579C89.2996 49.9123 88.9157 49.7895 88.427 49.7895C88.078 49.7895 87.7464 49.8596 87.4497 50C87.1531 50.1403 87.0135 50.2807 87.0135 50.4386C87.0135 50.5088 87.0309 50.5789 87.0484 50.6842C87.0658 50.7719 87.0833 50.8421 87.0833 50.8947C87.0833 51.0351 87.0309 51.1754 86.9262 51.2982C86.8215 51.421 86.6644 51.4737 86.455 51.4737C86.2805 51.4737 86.1234 51.4035 85.9838 51.2632C85.8617 51.1228 85.7919 50.9298 85.7919 50.7017C85.7919 50.193 86.0711 49.807 86.647 49.5263C87.2229 49.2456 87.9209 49.1228 88.7761 49.1228C89.7359 49.1228 90.4514 49.3333 90.9575 49.7368C91.4636 50.1579 91.7079 50.7193 91.7079 51.4386V55.193C91.7079 55.5088 91.8301 55.6667 92.057 55.6667C92.1966 55.6667 92.3711 55.6316 92.598 55.5439V55.8421C92.4234 55.9824 92.214 56.0877 91.9697 56.1579C91.7254 56.2281 91.4636 56.2631 91.1844 56.2631C90.8877 56.2631 90.6259 56.2105 90.3991 56.0877C90.1722 55.9824 90.0675 55.7895 90.0675 55.5088V55.1579C89.701 55.5614 89.2822 55.8596 88.8284 56.0175C88.3747 56.1754 87.9209 56.2631 87.4672 56.2631C86.8738 56.2807 86.3852 56.1403 86.0362 55.8596Z" fill="#232323"/>
<path d="M98.7933 49.2983C99.0027 49.4036 99.1248 49.5966 99.1248 49.8246C99.1248 50.0527 99.0725 50.2106 98.9503 50.3334C98.8456 50.4387 98.6885 50.5089 98.4966 50.5089C98.3744 50.5089 98.2872 50.4913 98.2174 50.4562C98.1475 50.4211 98.0777 50.351 98.0079 50.2808C97.9381 50.2106 97.8683 50.1404 97.7985 50.1053C97.7287 50.0703 97.6415 50.0527 97.5367 50.0527C97.3099 50.0527 97.083 50.1404 96.8561 50.3334C96.6293 50.5264 96.4373 50.7896 96.2802 51.1404C96.1232 51.4913 96.0359 51.8948 96.0185 52.351V55.2106C96.0185 55.3685 96.0883 55.5089 96.2279 55.579C96.3675 55.6668 96.5595 55.7018 96.8038 55.7018H97.083V56.1404H93.2786V55.7018H93.5927C93.8196 55.7018 94.0115 55.6668 94.1511 55.579C94.2908 55.5089 94.3606 55.3861 94.3606 55.2106V50.5615C94.3606 50.3334 94.2559 50.2106 94.029 50.2106C93.9417 50.2106 93.8021 50.2457 93.6276 50.3159L93.5229 49.9299L95.6694 49.1931H96.0185V50.6492C96.1581 50.1755 96.4198 49.8071 96.8038 49.5264C97.1877 49.2457 97.5716 49.1053 98.0079 49.1053C98.3221 49.1229 98.5838 49.1931 98.7933 49.2983Z" fill="#232323"/>
<path d="M112.632 55.7017V56.1403H108.845V55.7017H109.142C109.386 55.7017 109.578 55.6667 109.718 55.5789C109.858 55.5088 109.927 55.386 109.927 55.2105V51.2982C109.927 50.807 109.823 50.4386 109.596 50.1754C109.369 49.9298 109.072 49.807 108.688 49.807C108.217 49.807 107.816 50 107.467 50.386C107.118 50.7719 106.961 51.3333 106.961 52.0526V55.193C106.961 55.3509 107.03 55.4912 107.17 55.5614C107.31 55.6491 107.502 55.6842 107.746 55.6842H107.868V56.1403H104.43V55.7017H104.587C104.831 55.7017 105.023 55.6667 105.163 55.5789C105.303 55.5088 105.372 55.386 105.372 55.2105V51.2982C105.372 50.807 105.268 50.4386 105.041 50.1754C104.814 49.9298 104.517 49.807 104.133 49.807C103.662 49.807 103.261 50 102.912 50.386C102.58 50.7719 102.406 51.3333 102.406 52.0526V55.193C102.406 55.3509 102.476 55.4912 102.615 55.5614C102.755 55.6491 102.947 55.6842 103.191 55.6842H103.47V56.1403H99.6658V55.7017H99.98C100.207 55.7017 100.399 55.6667 100.538 55.5789C100.678 55.5088 100.748 55.386 100.748 55.2105V50.5614C100.748 50.3333 100.643 50.2105 100.416 50.2105C100.329 50.2105 100.189 50.2456 100.015 50.3158L99.9102 49.9298L102.004 49.193H102.406V50.2982C102.615 49.9649 102.912 49.6842 103.296 49.4561C103.697 49.2281 104.133 49.1228 104.64 49.1228C105.268 49.1228 105.756 49.2456 106.14 49.4737C106.507 49.7018 106.751 50.0351 106.873 50.4561C107.03 50.0702 107.327 49.7544 107.763 49.5088C108.182 49.2456 108.671 49.1228 109.212 49.1228C109.997 49.1228 110.59 49.2982 110.992 49.6667C111.393 50.0351 111.603 50.5088 111.603 51.1228V55.193C111.603 55.3509 111.672 55.4912 111.812 55.5614C111.952 55.6491 112.144 55.6842 112.371 55.6842H112.632V55.7017Z" fill="#232323"/>
<path d="M118.862 54.8772C119.246 54.3684 119.438 53.6491 119.438 52.7018C119.438 51.7719 119.246 51.0526 118.862 50.5439C118.479 50.0351 117.955 49.7895 117.292 49.7895C116.611 49.7895 116.088 50.0351 115.704 50.5439C115.32 51.0526 115.128 51.7719 115.128 52.7018C115.128 53.6491 115.32 54.3684 115.704 54.8772C116.088 55.386 116.611 55.6316 117.292 55.6316C117.955 55.6316 118.479 55.386 118.862 54.8772ZM114.447 55.3509C113.784 54.7368 113.453 53.8596 113.453 52.7018C113.453 51.5439 113.784 50.6667 114.447 50.0526C115.11 49.4386 116.053 49.1228 117.292 49.1228C118.513 49.1228 119.438 49.4386 120.102 50.0526C120.765 50.6667 121.096 51.5439 121.096 52.7018C121.096 53.8596 120.765 54.7368 120.102 55.3509C119.438 55.9649 118.496 56.2807 117.292 56.2807C116.053 56.2807 115.11 55.9649 114.447 55.3509Z" fill="#232323"/>
<path d="M130.73 55.7017V56.1403H126.995V55.7017H127.239C127.466 55.7017 127.641 55.6667 127.78 55.5789C127.92 55.5088 127.99 55.386 127.99 55.2105V51.2982C127.99 50.807 127.867 50.4386 127.623 50.1754C127.379 49.9298 127.03 49.807 126.576 49.807C126.262 49.807 125.965 49.8947 125.669 50.0526C125.372 50.2105 125.128 50.4737 124.936 50.807C124.744 51.1403 124.656 51.5614 124.656 52.0526V55.2105C124.656 55.3684 124.726 55.4912 124.866 55.5789C125.005 55.6491 125.18 55.7017 125.407 55.7017H125.651V56.1403H121.917V55.7017H122.213C122.457 55.7017 122.649 55.6667 122.789 55.5789C122.929 55.5088 122.999 55.386 122.999 55.2105V50.5614C122.999 50.3333 122.876 50.2105 122.649 50.2105C122.58 50.2105 122.44 50.2456 122.266 50.3158L122.161 49.9298L124.272 49.193H124.674V50.3333C124.901 49.9825 125.232 49.7018 125.669 49.4737C126.105 49.2456 126.594 49.1228 127.117 49.1228C127.937 49.1228 128.583 49.2982 129.002 49.6667C129.438 50.0351 129.648 50.5088 129.648 51.1228V55.2105C129.648 55.3684 129.717 55.4912 129.857 55.5789C129.997 55.6491 130.189 55.7017 130.433 55.7017H130.73Z" fill="#232323"/>
<path d="M132.614 47.7017C132.44 47.5263 132.353 47.3158 132.353 47.0526C132.353 46.7719 132.44 46.5614 132.614 46.386C132.789 46.2105 133.016 46.1228 133.295 46.1228C133.557 46.1228 133.784 46.2105 133.958 46.386C134.133 46.5614 134.22 46.7719 134.22 47.0526C134.22 47.3158 134.133 47.5263 133.958 47.7017C133.784 47.8772 133.557 47.9649 133.295 47.9649C133.016 47.9649 132.789 47.8772 132.614 47.7017ZM131.515 55.7017H131.812C132.056 55.7017 132.248 55.6667 132.387 55.5789C132.527 55.5088 132.597 55.386 132.597 55.2105V50.5439C132.597 50.2982 132.475 50.1754 132.248 50.1754C132.196 50.1754 132.143 50.193 132.056 50.2281C131.969 50.2632 131.916 50.2807 131.864 50.2807L131.742 49.8947L133.853 49.1754H134.255V55.193C134.255 55.3509 134.325 55.4737 134.464 55.5614C134.604 55.6316 134.796 55.6842 135.023 55.6842H135.337V56.1403H131.515V55.7017Z" fill="#232323"/>
<path d="M144.045 49.2808V49.7194H143.836C143.609 49.7194 143.417 49.772 143.277 49.8773C143.138 49.9825 143.015 50.1755 142.911 50.4387L140.049 57.5088C139.647 58.5088 138.949 59.0176 137.955 59.0176C137.536 59.0176 137.204 58.9299 136.96 58.772C136.715 58.6141 136.576 58.4211 136.576 58.2106C136.576 57.8773 136.733 57.7018 137.047 57.7018C137.134 57.7018 137.204 57.7194 137.274 57.772C137.344 57.8246 137.396 57.8773 137.466 57.965C137.588 58.1404 137.728 58.2281 137.902 58.2281C138.269 58.2281 138.565 58.1404 138.775 57.9474C138.984 57.7544 139.159 57.4737 139.316 57.1053L139.7 56.1053L136.96 50.1404C136.838 49.8597 136.593 49.7369 136.244 49.7369H136V49.2983H139.368V49.7369H139.106C138.879 49.7369 138.705 49.772 138.618 49.8597C138.53 49.9299 138.496 50.0351 138.548 50.158L140.345 54.5088L142.021 50.2106L142.056 50.0878C142.056 49.9825 142.003 49.8948 141.881 49.8422C141.776 49.7895 141.637 49.7544 141.48 49.7544H141.218V49.3159H144.045V49.2808Z" fill="#232323"/>
<path d="M147.954 55.2807C148.303 55.0702 148.565 54.8246 148.722 54.5439V52.4912C147.762 52.7017 147.047 53 146.558 53.386C146.07 53.7719 145.825 54.1754 145.825 54.614C145.825 54.9298 145.93 55.1754 146.122 55.3509C146.331 55.5263 146.593 55.614 146.942 55.614C147.274 55.614 147.605 55.4912 147.954 55.2807ZM144.708 55.8596C144.359 55.5789 144.167 55.2105 144.167 54.7193C144.167 53.9825 144.534 53.4035 145.284 52.9474C146.017 52.4912 147.169 52.1579 148.705 51.9474V51.2456C148.705 50.7544 148.565 50.386 148.268 50.1579C147.972 49.9123 147.588 49.7895 147.099 49.7895C146.75 49.7895 146.419 49.8596 146.122 50C145.825 50.1403 145.686 50.2807 145.686 50.4386C145.686 50.5088 145.703 50.5789 145.72 50.6842C145.738 50.7719 145.755 50.8421 145.755 50.8947C145.755 51.0351 145.703 51.1754 145.598 51.2982C145.494 51.421 145.337 51.4737 145.127 51.4737C144.953 51.4737 144.796 51.4035 144.656 51.2632C144.534 51.1228 144.464 50.9298 144.464 50.7017C144.464 50.193 144.743 49.807 145.319 49.5263C145.878 49.2632 146.593 49.1228 147.448 49.1228C148.408 49.1228 149.124 49.3333 149.63 49.7368C150.136 50.1579 150.38 50.7193 150.38 51.4386V55.193C150.38 55.5088 150.502 55.6667 150.729 55.6667C150.869 55.6667 151.043 55.6316 151.27 55.5439V55.8421C151.096 55.9824 150.886 56.0877 150.642 56.1579C150.397 56.2281 150.136 56.2631 149.856 56.2631C149.56 56.2631 149.298 56.2105 149.071 56.0877C148.844 55.9824 148.74 55.7895 148.74 55.5088V55.1579C148.373 55.5614 147.954 55.8596 147.501 56.0175C147.029 56.1754 146.593 56.2631 146.139 56.2631C145.546 56.2807 145.075 56.1403 144.708 55.8596Z" fill="#232323"/>
<path d="M152.719 55.3509L152.579 56.2281H152.16V54.0351H152.561C152.666 54.5263 152.911 54.9123 153.277 55.2105C153.643 55.5088 154.097 55.6491 154.621 55.6491C155.144 55.6491 155.563 55.5614 155.86 55.3684C156.156 55.1754 156.296 54.8947 156.296 54.5439C156.296 54.2632 156.174 54.0526 155.912 53.8947C155.65 53.7368 155.249 53.5614 154.708 53.3684C154.184 53.1754 153.748 53 153.417 52.8421C153.085 52.6667 152.806 52.4386 152.561 52.1228C152.317 51.8246 152.195 51.421 152.195 50.9474C152.195 50.3684 152.422 49.9123 152.858 49.5965C153.312 49.2807 153.958 49.1228 154.795 49.1228C155.249 49.1228 155.685 49.193 156.122 49.3333C156.558 49.4737 156.889 49.6842 157.116 49.9649L157.308 49.1228H157.727V51.2632H157.326C157.221 50.8246 156.994 50.4737 156.645 50.193C156.296 49.9123 155.86 49.7719 155.336 49.7719C154.9 49.7719 154.533 49.8596 154.272 50.0351C154.01 50.2105 153.87 50.4386 153.87 50.7368C153.87 50.9649 153.94 51.1403 154.08 51.2982C154.219 51.4561 154.411 51.5789 154.621 51.6667C154.848 51.7719 155.144 51.8772 155.546 52.0175C156.069 52.193 156.488 52.3509 156.802 52.5088C157.134 52.6667 157.396 52.8772 157.622 53.1754C157.849 53.4561 157.954 53.8421 157.954 54.2982C157.954 54.9649 157.692 55.4737 157.151 55.7895C156.61 56.1053 155.93 56.2632 155.092 56.2632C154.01 56.2807 153.207 55.9649 152.719 55.3509Z" fill="#232323"/>
<path d="M159.036 55.7019H159.333C159.577 55.7019 159.769 55.6668 159.909 55.579C160.048 55.5089 160.118 55.3861 160.118 55.2106V50.544C160.118 50.2983 159.996 50.1755 159.769 50.1755C159.717 50.1755 159.647 50.1931 159.577 50.2282C159.49 50.2633 159.437 50.2808 159.385 50.2808L159.263 49.8948L161.374 49.1755H161.776V55.1931C161.776 55.351 161.846 55.4738 161.985 55.5615C162.125 55.6317 162.317 55.6843 162.544 55.6843H162.858V56.1404H159.036V55.7019Z" fill="#232323"/>
</svg>
